<mxfile host="app.diagrams.net" modified="2023-10-05T09:24:06.007Z" agent="Mozilla/5.0 (Macintosh; Intel Mac OS X 10.15; rv:109.0) Gecko/20100101 Firefox/117.0" version="22.0.2" etag="QeiEQMeN8JOxD-VG__NS" type="github">
  <diagram name="Page-1" id="n82tWDcJP--mXQgM3JuO">
    <mxGraphModel>
      <root>
        <mxCell id="0" />
        <mxCell id="1" parent="0" />
      </root>
    </mxGraphModel>
  </diagram>
</mxfile>
